<svg width="172" height="35" viewBox="0 0 172 35" fill="none" xmlns="http://www.w3.org/2000/svg">
<path d="M0 17.4892C0 26.5095 6.60814 33.9191 15.1108 34.9546V0.0236816C6.60814 1.05918 0 8.46878 0 17.4892Z" fill="#7950ED"/>
<path d="M34.3033 17.4885C34.3033 8.42209 27.6275 0.966469 19.0347 0V35H34.2807V17.9717C34.3033 17.8106 34.3033 17.6496 34.3033 17.4885Z" fill="#7950ED"/>
<path d="M49.5166 17.5115C51.366 17.5115 52.629 18.4089 53.3056 19.3754V17.6956H56.2376V29.4083H53.3056V27.7054C52.629 28.7179 51.3209 29.6154 49.4941 29.6154C46.5847 29.6154 44.2617 27.1762 44.2617 23.5174C44.2617 19.8586 46.5847 17.5115 49.5166 17.5115ZM50.2609 20.1117C48.7047 20.1117 47.2388 21.3083 47.2388 23.5174C47.2388 25.7265 48.7047 27.0151 50.2609 27.0151C51.8622 27.0151 53.3056 25.7955 53.3056 23.5634C53.3056 21.3313 51.8622 20.1117 50.2609 20.1117Z" fill="white"/>
<path d="M75.25 22.9422C75.25 21.0783 74.2351 20.1118 72.7015 20.1118C71.1453 20.1118 70.1304 21.0783 70.1304 22.9422V29.4083H67.221V22.9422C67.221 21.0783 66.2061 20.1118 64.6725 20.1118C63.0937 20.1118 62.0788 21.0783 62.0788 22.9422V29.4083H59.1694V17.6956H62.0788V19.1223C62.8005 18.1558 64.0184 17.5345 65.4618 17.5345C67.2435 17.5345 68.7095 18.3169 69.4989 19.7666C70.2431 18.432 71.7542 17.5345 73.4457 17.5345C76.1972 17.5345 78.1594 19.3064 78.1594 22.551V29.4313H75.25V22.9422Z" fill="white"/>
<path d="M87.7223 17.5115C90.6768 17.5115 92.9772 19.8586 92.9772 23.5174C92.9772 27.1762 90.6768 29.6154 87.7223 29.6154C85.918 29.6154 84.6325 28.6949 83.9333 27.7515V35H81.0239V17.6956H83.9333V19.3984C84.6099 18.3859 85.9406 17.5115 87.7223 17.5115ZM86.9555 20.1117C85.3993 20.1117 83.9333 21.3313 83.9333 23.5634C83.9333 25.7955 85.3993 27.0151 86.9555 27.0151C88.5342 27.0151 90.0002 25.7495 90.0002 23.5174C90.0002 21.2853 88.5342 20.1117 86.9555 20.1117Z" fill="white"/>
<path d="M95.1875 13.7606H98.0969V29.4312H95.1875V13.7606Z" fill="white"/>
<path d="M100.735 14.566C100.735 13.5996 101.48 12.8402 102.517 12.8402C103.532 12.8402 104.299 13.5996 104.299 14.566C104.299 15.5325 103.532 16.2919 102.517 16.2919C101.48 16.2919 100.735 15.5325 100.735 14.566ZM101.051 17.6956H103.96V29.4083H101.051V17.6956Z" fill="white"/>
<path d="M111.854 17.5115C114.719 17.5115 116.636 19.0302 117.267 21.6535H114.132C113.794 20.664 113.027 20.0197 111.832 20.0197C110.208 20.0197 109.125 21.2623 109.125 23.5634C109.125 25.8415 110.208 27.0841 111.832 27.0841C113.027 27.0841 113.771 26.5319 114.132 25.4733H117.267C116.636 27.9816 114.719 29.6154 111.854 29.6154C108.539 29.6154 106.171 27.2452 106.171 23.5634C106.171 19.8816 108.539 17.5115 111.854 17.5115Z" fill="white"/>
<path d="M124.01 17.5115C125.86 17.5115 127.123 18.4089 127.799 19.3754V17.6956H130.731V29.4083H127.799V27.7054C127.123 28.7179 125.815 29.6154 123.988 29.6154C121.078 29.6154 118.755 27.1762 118.755 23.5174C118.755 19.8586 121.078 17.5115 124.01 17.5115ZM124.755 20.1117C123.198 20.1117 121.732 21.3083 121.732 23.5174C121.732 25.7265 123.198 27.0151 124.755 27.0151C126.356 27.0151 127.799 25.7955 127.799 23.5634C127.799 21.3313 126.356 20.1117 124.755 20.1117Z" fill="white"/>
<path d="M134.136 20.1347H132.761V17.6955H134.136V14.7961H137.068V17.6955H139.639V20.1347H137.046V25.7955C137.046 26.5779 137.362 26.923 138.264 26.923H139.617V29.4312H137.79C135.602 29.4312 134.114 28.4878 134.114 25.7955V20.1347H134.136Z" fill="white"/>
<path d="M141.512 14.566C141.512 13.5996 142.256 12.8402 143.293 12.8402C144.308 12.8402 145.075 13.5996 145.075 14.566C145.075 15.5325 144.308 16.2919 143.293 16.2919C142.256 16.2919 141.512 15.5325 141.512 14.566ZM141.827 17.6956H144.737V29.4083H141.827V17.6956Z" fill="white"/>
<path d="M152.788 29.6154C149.473 29.6154 146.97 27.2452 146.97 23.5634C146.97 19.8586 149.563 17.5115 152.879 17.5115C156.194 17.5115 158.788 19.8586 158.788 23.5634C158.788 27.2452 156.149 29.6154 152.788 29.6154ZM152.788 27.0381C154.322 27.0381 155.788 25.8876 155.788 23.5634C155.788 21.2163 154.367 20.0887 152.811 20.0887C151.255 20.0887 149.879 21.2163 149.879 23.5634C149.924 25.8876 151.232 27.0381 152.788 27.0381Z" fill="white"/>
<path d="M169.072 22.9421C169.072 21.0552 168.057 20.0427 166.524 20.0427C164.945 20.0427 163.93 21.0552 163.93 22.9421V29.4083H161.021V17.6956H163.93V19.1453C164.674 18.1558 165.915 17.5115 167.403 17.5115C170.087 17.5115 171.981 19.2833 171.981 22.5279V29.4083H169.072V22.9421Z" fill="white"/>
</svg>
