<svg width="660" height="308" viewBox="0 0 660 308" fill="none" xmlns="http://www.w3.org/2000/svg">
<path d="M8 0.5H652C656.142 0.5 659.5 3.858 659.5 8V300C659.5 304.142 656.142 307.5 652 307.5H8C3.8579 307.5 0.5 304.142 0.5 300V8C0.5 3.858 3.8579 0.5 8 0.5Z" fill="#22273C" stroke="#373D57"/>
<g filter="url(#filter0_i_1_49)">
<path d="M55.0952 21H31C24.9249 21 20 25.9249 20 32C20 38.0751 24.9249 43 31 43H55.0952C61.1703 43 66.0952 38.0751 66.0952 32C66.0952 25.9249 61.1703 21 55.0952 21Z" fill="#7950ED"/>
</g>
<path d="M55.0952 21H31C24.9249 21 20 25.9249 20 32C20 38.0751 24.9249 43 31 43H55.0952C61.1703 43 66.0952 38.0751 66.0952 32C66.0952 25.9249 61.1703 21 55.0952 21Z" stroke="#7950ED"/>
<g filter="url(#filter1_d_1_49)">
<path d="M55.1778 23.444H55.1777C50.4881 23.444 46.6865 27.2456 46.6865 31.9352V32.0639C46.6865 36.7535 50.4881 40.5551 55.1777 40.5551H55.1778C59.8673 40.5551 63.669 36.7535 63.669 32.0639V31.9352C63.669 27.2456 59.8673 23.444 55.1778 23.444Z" fill="white"/>
</g>
<path d="M90.575 34.96C90.575 30.832 84.559 32.624 84.559 29.744C84.559 28.544 85.503 27.92 86.703 27.952C88.063 27.968 88.767 28.816 88.863 29.568H90.463C90.287 27.872 88.895 26.704 86.767 26.704C84.559 26.704 83.071 27.952 83.071 29.792C83.071 33.936 89.103 32.016 89.103 35.024C89.103 36.08 88.271 36.88 86.863 36.88C85.311 36.88 84.655 35.952 84.559 35.024H83.007C83.039 36.864 84.623 38.112 86.863 38.112C89.279 38.112 90.575 36.544 90.575 34.96ZM96.046 36.336L93.294 29.232H91.678L95.214 37.904L93.486 42.128H94.99L100.27 29.232H98.766L96.046 36.336ZM108.149 38H109.589V32.832C109.589 30.32 108.037 29.072 106.005 29.072C104.821 29.072 103.765 29.568 103.189 30.48V29.232H101.733V38H103.189V33.152C103.189 31.264 104.213 30.336 105.701 30.336C107.173 30.336 108.149 31.248 108.149 33.04V38ZM111.424 33.6C111.424 36.384 113.2 38.144 115.696 38.144C117.872 38.144 119.296 36.928 119.744 35.184H118.176C117.856 36.288 116.992 36.912 115.696 36.912C114.096 36.912 112.912 35.776 112.912 33.6C112.912 31.456 114.096 30.32 115.696 30.32C116.992 30.32 117.872 30.992 118.176 32.048H119.744C119.296 30.208 117.872 29.088 115.696 29.088C113.2 29.088 111.424 30.848 111.424 33.6ZM127.664 38H129.168L131.28 31.04L133.392 38H134.896L137.632 29.232H136.192L134.208 36.608L132.08 29.232H130.592L128.416 36.592L126.4 29.232H124.912L127.664 38ZM139.077 38H140.533V29.232H139.077V38ZM139.829 27.808C140.357 27.808 140.789 27.376 140.789 26.816C140.789 26.256 140.357 25.824 139.829 25.824C139.269 25.824 138.837 26.256 138.837 26.816C138.837 27.376 139.269 27.808 139.829 27.808ZM143.335 35.6C143.335 37.36 144.215 38 145.767 38H147.079V36.768H146.007C145.111 36.768 144.791 36.464 144.791 35.6V30.432H147.079V29.232H144.791V27.024H143.335V29.232H142.199V30.432H143.335V35.6ZM148.843 38H150.299V33.152C150.299 31.264 151.323 30.336 152.811 30.336C154.283 30.336 155.259 31.248 155.259 33.04V38H156.699V32.832C156.699 30.32 155.147 29.072 153.195 29.072C151.963 29.072 150.875 29.568 150.299 30.496V26.16H148.843V38ZM168.399 26.72C165.263 26.72 162.799 29.072 162.799 32.416C162.799 35.76 165.263 38.096 168.399 38.096C171.423 38.096 173.615 35.872 173.871 33.104V31.984H167.871V33.168H172.319C172.095 35.376 170.591 36.784 168.399 36.784C166.047 36.784 164.287 35.088 164.287 32.416C164.287 29.728 166.047 28.032 168.399 28.032C169.967 28.032 171.183 28.784 171.791 30.08H173.535C172.703 27.936 170.751 26.72 168.399 26.72ZM175.796 38H177.252V29.232H175.796V38ZM176.548 27.808C177.076 27.808 177.508 27.376 177.508 26.816C177.508 26.256 177.076 25.824 176.548 25.824C175.988 25.824 175.556 26.256 175.556 26.816C175.556 27.376 175.988 27.808 176.548 27.808ZM180.053 35.6C180.053 37.36 180.933 38 182.485 38H183.797V36.768H182.725C181.829 36.768 181.509 36.464 181.509 35.6V30.432H183.797V29.232H181.509V27.024H180.053V29.232H178.917V30.432H180.053V35.6ZM192.698 38H194.154V26.848H192.698V31.744H187.018V26.848H185.562V38H187.018V32.944H192.698V38ZM204.4 29.232H202.944V34.048C202.944 35.936 201.936 36.864 200.432 36.864C198.96 36.864 197.984 35.952 197.984 34.176V29.232H196.544V34.368C196.544 36.88 198.128 38.128 200.144 38.128C201.312 38.128 202.384 37.616 202.944 36.704V38H204.4V29.232ZM208.314 30.864V26.16H206.858V38H208.314V36.384C208.858 37.344 209.994 38.144 211.594 38.144C213.946 38.144 215.754 36.304 215.754 33.584C215.754 30.848 213.962 29.088 211.594 29.088C210.042 29.088 208.874 29.888 208.314 30.864ZM214.266 33.584C214.266 35.648 212.906 36.864 211.29 36.864C209.706 36.864 208.314 35.664 208.314 33.6C208.314 31.568 209.706 30.352 211.29 30.352C212.906 30.352 214.266 31.52 214.266 33.584Z" fill="#A3A8B8"/>
<path d="M637 66H24C21.7909 66 20 67.7909 20 70V126C20 128.209 21.7909 130 24 130H637C639.209 130 641 128.209 641 126V70C641 67.7909 639.209 66 637 66Z" fill="#373D57"/>
<path d="M617 86H538C535.791 86 534 87.7909 534 90V106C534 108.209 535.791 110 538 110H617C619.209 110 621 108.209 621 106V90C621 87.7909 619.209 86 617 86Z" fill="#7950ED"/>
<path d="M552.774 97.812C552.774 100.32 554.682 102.072 557.034 102.072C558.774 102.072 560.274 101.208 560.91 99.576H559.266C558.822 100.464 558.03 100.884 557.034 100.884C555.378 100.884 554.178 99.696 554.178 97.812C554.178 95.928 555.378 94.752 557.034 94.752C558.03 94.752 558.822 95.172 559.266 96.06H560.91C560.274 94.428 558.774 93.552 557.034 93.552C554.682 93.552 552.774 95.316 552.774 97.812ZM562.872 102H564.24V98.304C564.24 97.092 564.9 96.468 565.908 96.468C566.904 96.468 567.564 97.092 567.564 98.304V102H568.92V98.1C568.92 96.252 567.768 95.28 566.292 95.28C565.44 95.28 564.696 95.604 564.24 96.156V93.12H562.872V102ZM570.569 98.664C570.569 100.704 571.949 102.108 573.665 102.108C574.769 102.108 575.561 101.58 575.981 101.016V102H577.361V95.388H575.981V96.348C575.573 95.808 574.805 95.28 573.689 95.28C571.949 95.28 570.569 96.624 570.569 98.664ZM575.981 98.688C575.981 100.116 575.009 100.92 573.977 100.92C572.957 100.92 571.973 100.092 571.973 98.664C571.973 97.236 572.957 96.468 573.977 96.468C575.009 96.468 575.981 97.272 575.981 98.688ZM584.21 102H585.566V98.1C585.566 96.252 584.402 95.28 582.854 95.28C582.062 95.28 581.33 95.604 580.886 96.144V95.388H579.518V102H580.886V98.304C580.886 97.092 581.546 96.468 582.554 96.468C583.55 96.468 584.21 97.092 584.21 98.304V102ZM587.214 98.664C587.214 100.704 588.594 102.108 590.334 102.108C591.414 102.108 592.206 101.568 592.626 101.004V102.108C592.626 103.428 591.834 104.076 590.778 104.076C589.83 104.076 589.098 103.608 588.894 102.924H587.538C587.706 104.388 589.014 105.264 590.778 105.264C592.842 105.264 594.006 103.908 594.006 102.108V95.388H592.626V96.348C592.218 95.784 591.414 95.28 590.334 95.28C588.594 95.28 587.214 96.624 587.214 98.664ZM592.626 98.688C592.626 100.116 591.654 100.92 590.622 100.92C589.602 100.92 588.618 100.092 588.618 98.664C588.618 97.236 589.602 96.468 590.622 96.468C591.654 96.468 592.626 97.272 592.626 98.688ZM598.947 96.432C599.967 96.432 600.771 97.08 600.795 98.1H597.135C597.279 97.056 598.023 96.432 598.947 96.432ZM602.043 100.032H600.567C600.315 100.548 599.847 100.956 599.007 100.956C597.999 100.956 597.219 100.296 597.123 99.204H602.175C602.211 98.976 602.223 98.76 602.223 98.532C602.223 96.588 600.891 95.28 599.007 95.28C597.051 95.28 595.707 96.612 595.707 98.688C595.707 100.764 597.111 102.108 599.007 102.108C600.627 102.108 601.671 101.184 602.043 100.032Z" fill="white"/>
<path d="M36.8613 90H38.0133L35.0013 81.684H33.7413L30.7173 90H31.8693L32.5413 88.14H36.1893L36.8613 90ZM35.8773 87.252H32.8533L34.3653 83.028L35.8773 87.252ZM48.8232 90H49.9032V86.124C49.9032 84.24 48.7392 83.304 47.2392 83.304C46.2312 83.304 45.2952 83.82 44.9112 84.768C44.4792 83.784 43.5792 83.304 42.4992 83.304C41.6352 83.304 40.8552 83.676 40.4232 84.372V83.424H39.3312V90H40.4232V86.376C40.4232 84.96 41.1792 84.252 42.2832 84.252C43.3632 84.252 44.0832 84.936 44.0832 86.28V90H45.1632V86.376C45.1632 84.96 45.9192 84.252 47.0232 84.252C48.1032 84.252 48.8232 84.936 48.8232 86.28V90ZM52.7865 84.636V83.424H51.6945V93.12H52.7865V88.788C53.1945 89.46 54.0465 90.108 55.2465 90.108C57.0105 90.108 58.3665 88.728 58.3665 86.688C58.3665 84.636 57.0105 83.316 55.2465 83.316C54.0465 83.316 53.1825 83.94 52.7865 84.636ZM57.2505 86.688C57.2505 88.236 56.2305 89.148 55.0185 89.148C53.8305 89.148 52.7865 88.248 52.7865 86.7C52.7865 85.176 53.8305 84.264 55.0185 84.264C56.2305 84.264 57.2505 85.14 57.2505 86.688ZM59.8039 90H60.8959V81.12H59.8039V90ZM62.757 90H63.849V83.424H62.757V90ZM63.321 82.356C63.717 82.356 64.041 82.032 64.041 81.612C64.041 81.192 63.717 80.868 63.321 80.868C62.901 80.868 62.577 81.192 62.577 81.612C62.577 82.032 62.901 82.356 63.321 82.356ZM65.3021 86.7C65.3021 88.788 66.6341 90.108 68.5061 90.108C70.1381 90.108 71.2061 89.196 71.5421 87.888H70.3661C70.1261 88.716 69.4781 89.184 68.5061 89.184C67.3061 89.184 66.4181 88.332 66.4181 86.7C66.4181 85.092 67.3061 84.24 68.5061 84.24C69.4781 84.24 70.1381 84.744 70.3661 85.536H71.5421C71.2061 84.156 70.1381 83.316 68.5061 83.316C66.6341 83.316 65.3021 84.636 65.3021 86.7ZM72.5912 86.688C72.5912 88.728 73.9472 90.108 75.6992 90.108C76.9112 90.108 77.7632 89.484 78.1592 88.776V90H79.2632V83.424H78.1592V84.624C77.7752 83.94 76.9352 83.316 75.7112 83.316C73.9472 83.316 72.5912 84.636 72.5912 86.688ZM78.1592 86.7C78.1592 88.248 77.1272 89.148 75.9272 89.148C74.7272 89.148 73.7072 88.236 73.7072 86.688C73.7072 85.14 74.7272 84.264 75.9272 84.264C77.1272 84.264 78.1592 85.176 78.1592 86.7ZM81.349 88.2C81.349 89.52 82.009 90 83.173 90H84.157V89.076H83.353C82.681 89.076 82.441 88.848 82.441 88.2V84.324H84.157V83.424H82.441V81.768H81.349V83.424H80.497V84.324H81.349V88.2ZM85.48 90H86.572V83.424H85.48V90ZM86.044 82.356C86.44 82.356 86.764 82.032 86.764 81.612C86.764 81.192 86.44 80.868 86.044 80.868C85.624 80.868 85.3 81.192 85.3 81.612C85.3 82.032 85.624 82.356 86.044 82.356ZM94.673 86.7C94.673 84.624 93.221 83.316 91.349 83.316C89.489 83.316 88.025 84.624 88.025 86.7C88.025 88.788 89.441 90.108 91.301 90.108C93.173 90.108 94.673 88.788 94.673 86.7ZM89.141 86.7C89.141 85.044 90.185 84.264 91.337 84.264C92.465 84.264 93.557 85.044 93.557 86.7C93.557 88.368 92.441 89.148 91.301 89.148C90.161 89.148 89.141 88.368 89.141 86.7ZM100.921 90H102.001V86.124C102.001 84.24 100.837 83.304 99.313 83.304C98.425 83.304 97.633 83.676 97.201 84.36V83.424H96.109V90H97.201V86.364C97.201 84.948 97.969 84.252 99.085 84.252C100.189 84.252 100.921 84.936 100.921 86.28V90ZM103.496 92.04H104.576L107.864 78.696H106.772L103.496 92.04ZM115.107 90H116.259L113.247 81.684H111.987L108.963 90H110.115L110.787 88.14H114.435L115.107 90ZM114.123 87.252H111.099L112.611 83.028L114.123 87.252ZM127.069 90H128.149V86.124C128.149 84.24 126.985 83.304 125.485 83.304C124.477 83.304 123.541 83.82 123.157 84.768C122.725 83.784 121.825 83.304 120.745 83.304C119.881 83.304 119.101 83.676 118.669 84.372V83.424H117.577V90H118.669V86.376C118.669 84.96 119.425 84.252 120.529 84.252C121.609 84.252 122.329 84.936 122.329 86.28V90H123.409V86.376C123.409 84.96 124.165 84.252 125.269 84.252C126.349 84.252 127.069 84.936 127.069 86.28V90ZM131.033 84.636V83.424H129.941V93.12H131.033V88.788C131.441 89.46 132.293 90.108 133.493 90.108C135.257 90.108 136.613 88.728 136.613 86.688C136.613 84.636 135.257 83.316 133.493 83.316C132.293 83.316 131.429 83.94 131.033 84.636ZM135.497 86.688C135.497 88.236 134.477 89.148 133.265 89.148C132.077 89.148 131.033 88.248 131.033 86.7C131.033 85.176 132.077 84.264 133.265 84.264C134.477 84.264 135.497 85.14 135.497 86.688ZM138.05 90H139.142V81.12H138.05V90ZM141.003 90H142.095V83.424H141.003V90ZM141.567 82.356C141.963 82.356 142.287 82.032 142.287 81.612C142.287 81.192 141.963 80.868 141.567 80.868C141.147 80.868 140.823 81.192 140.823 81.612C140.823 82.032 141.147 82.356 141.567 82.356ZM143.548 86.7C143.548 88.788 144.88 90.108 146.752 90.108C148.384 90.108 149.452 89.196 149.788 87.888H148.612C148.372 88.716 147.724 89.184 146.752 89.184C145.552 89.184 144.664 88.332 144.664 86.7C144.664 85.092 145.552 84.24 146.752 84.24C147.724 84.24 148.384 84.744 148.612 85.536H149.788C149.452 84.156 148.384 83.316 146.752 83.316C144.88 83.316 143.548 84.636 143.548 86.7ZM150.837 86.688C150.837 88.728 152.193 90.108 153.945 90.108C155.157 90.108 156.009 89.484 156.405 88.776V90H157.509V83.424H156.405V84.624C156.021 83.94 155.181 83.316 153.957 83.316C152.193 83.316 150.837 84.636 150.837 86.688ZM156.405 86.7C156.405 88.248 155.373 89.148 154.173 89.148C152.973 89.148 151.953 88.236 151.953 86.688C151.953 85.14 152.973 84.264 154.173 84.264C155.373 84.264 156.405 85.176 156.405 86.7ZM158.947 86.7C158.947 88.788 160.279 90.108 162.151 90.108C163.783 90.108 164.851 89.196 165.187 87.888H164.011C163.771 88.716 163.123 89.184 162.151 89.184C160.951 89.184 160.063 88.332 160.063 86.7C160.063 85.092 160.951 84.24 162.151 84.24C163.123 84.24 163.783 84.744 164.011 85.536H165.187C164.851 84.156 163.783 83.316 162.151 83.316C160.279 83.316 158.947 84.636 158.947 86.7ZM166.884 88.2C166.884 89.52 167.544 90 168.708 90H169.692V89.076H168.888C168.216 89.076 167.976 88.848 167.976 88.2V84.324H169.692V83.424H167.976V81.768H166.884V83.424H166.032V84.324H166.884V88.2ZM171.015 90H172.107V83.424H171.015V90ZM171.579 82.356C171.975 82.356 172.299 82.032 172.299 81.612C172.299 81.192 171.975 80.868 171.579 80.868C171.159 80.868 170.835 81.192 170.835 81.612C170.835 82.032 171.159 82.356 171.579 82.356ZM180.208 86.7C180.208 84.624 178.756 83.316 176.884 83.316C175.024 83.316 173.56 84.624 173.56 86.7C173.56 88.788 174.976 90.108 176.836 90.108C178.708 90.108 180.208 88.788 180.208 86.7ZM174.676 86.7C174.676 85.044 175.72 84.264 176.872 84.264C178 84.264 179.092 85.044 179.092 86.7C179.092 88.368 177.976 89.148 176.836 89.148C175.696 89.148 174.676 88.368 174.676 86.7ZM186.456 90H187.536V86.124C187.536 84.24 186.372 83.304 184.848 83.304C183.96 83.304 183.168 83.676 182.736 84.36V83.424H181.644V90H182.736V86.364C182.736 84.948 183.504 84.252 184.62 84.252C185.724 84.252 186.456 84.936 186.456 86.28V90Z" fill="white"/>
<path d="M258.321 77.5H207.321C202.074 77.5 197.821 81.7533 197.821 87C197.821 92.2467 202.074 96.5 207.321 96.5H258.321C263.568 96.5 267.821 92.2467 267.821 87C267.821 81.7533 263.568 77.5 258.321 77.5Z" fill="#A787FF" fill-opacity="0.09" stroke="#A787FF"/>
<path d="M213.503 86.5H206.503C205.951 86.5 205.503 86.948 205.503 87.5V91C205.503 91.552 205.951 92 206.503 92H213.503C214.056 92 214.503 91.552 214.503 91V87.5C214.503 86.948 214.056 86.5 213.503 86.5Z" stroke="#A787FF" stroke-linecap="round" stroke-linejoin="round"/>
<path d="M207.503 86.5V84.5C207.503 83.837 207.767 83.201 208.236 82.732C208.704 82.263 209.34 82 210.003 82C210.666 82 211.302 82.263 211.771 82.732C212.24 83.201 212.503 83.837 212.503 84.5V86.5" stroke="#A787FF" stroke-linecap="round" stroke-linejoin="round"/>
<path d="M221.893 86.3V85.49H220.753V93.62H221.893V90.2C222.253 90.63 222.903 91.09 223.813 91.09C225.263 91.09 226.403 89.92 226.403 88.22C226.403 86.52 225.263 85.4 223.813 85.4C222.913 85.4 222.243 85.84 221.893 86.3ZM225.243 88.22C225.243 89.41 224.423 90.1 223.563 90.1C222.713 90.1 221.893 89.43 221.893 88.24C221.893 87.06 222.713 86.39 223.563 86.39C224.423 86.39 225.243 87.03 225.243 88.22ZM228.971 88.1C228.971 86.93 229.491 86.58 230.331 86.58H230.621V85.4C229.841 85.4 229.291 85.74 228.971 86.29V85.49H227.831V91H228.971V88.1ZM231.969 91H233.109V85.49H231.969V91ZM232.549 84.76C232.949 84.76 233.269 84.44 233.269 84.03C233.269 83.62 232.949 83.3 232.549 83.3C232.139 83.3 231.819 83.62 231.819 84.03C231.819 84.44 232.139 84.76 232.549 84.76ZM234.255 85.49L236.345 91H237.705L239.805 85.49H238.595L237.035 89.98L235.475 85.49H234.255ZM240.587 88.22C240.587 89.92 241.737 91.09 243.167 91.09C244.087 91.09 244.747 90.65 245.097 90.18V91H246.247V85.49H245.097V86.29C244.757 85.84 244.117 85.4 243.187 85.4C241.737 85.4 240.587 86.52 240.587 88.22ZM245.097 88.24C245.097 89.43 244.287 90.1 243.427 90.1C242.577 90.1 241.757 89.41 241.757 88.22C241.757 87.03 242.577 86.39 243.427 86.39C244.287 86.39 245.097 87.06 245.097 88.24ZM248.224 89.47C248.224 90.59 248.834 91 249.814 91H250.714V90.05H250.014C249.534 90.05 249.374 89.88 249.374 89.47V86.42H250.714V85.49H249.374V84.12H248.224V85.49H247.574V86.42H248.224V89.47ZM254.385 86.36C255.235 86.36 255.905 86.9 255.925 87.75H252.875C252.995 86.88 253.615 86.36 254.385 86.36ZM256.965 89.36H255.735C255.525 89.79 255.135 90.13 254.435 90.13C253.595 90.13 252.945 89.58 252.865 88.67H257.075C257.105 88.48 257.115 88.3 257.115 88.11C257.115 86.49 256.005 85.4 254.435 85.4C252.805 85.4 251.685 86.51 251.685 88.24C251.685 89.97 252.855 91.09 254.435 91.09C255.785 91.09 256.655 90.32 256.965 89.36Z" fill="#A787FF"/>
<path d="M30.7513 113.24C30.7513 114.94 31.8813 116.09 33.3513 116.09C34.3513 116.09 35.0613 115.56 35.3913 114.97V116.12C35.3913 117.29 34.6613 117.91 33.6913 117.91C32.7913 117.91 32.1413 117.46 31.9413 116.8H31.0413C31.2213 117.97 32.2513 118.7 33.6913 118.7C35.3013 118.7 36.3113 117.63 36.3113 116.12V110.52H35.3913V111.52C35.0713 110.93 34.3513 110.43 33.3513 110.43C31.8813 110.43 30.7513 111.53 30.7513 113.24ZM35.3913 113.25C35.3913 114.54 34.5313 115.29 33.5313 115.29C32.5313 115.29 31.6813 114.53 31.6813 113.24C31.6813 111.95 32.5313 111.22 33.5313 111.22C34.5313 111.22 35.3913 111.98 35.3913 113.25ZM37.8491 116H38.7591V110.52H37.8491V116ZM38.3191 109.63C38.6491 109.63 38.9191 109.36 38.9191 109.01C38.9191 108.66 38.6491 108.39 38.3191 108.39C37.9691 108.39 37.6991 108.66 37.6991 109.01C37.6991 109.36 37.9691 109.63 38.3191 109.63ZM40.51 114.5C40.51 115.6 41.06 116 42.03 116H42.85V115.23H42.18C41.62 115.23 41.42 115.04 41.42 114.5V111.27H42.85V110.52H41.42V109.14H40.51V110.52H39.8V111.27H40.51V114.5ZM43.9526 116H44.8626V112.97C44.8626 111.79 45.5026 111.21 46.4326 111.21C47.3526 111.21 47.9626 111.78 47.9626 112.9V116H48.8626V112.77C48.8626 111.2 47.8926 110.42 46.6726 110.42C45.9026 110.42 45.2226 110.73 44.8626 111.31V108.6H43.9526V116ZM55.2091 110.52H54.2991V113.53C54.2991 114.71 53.6691 115.29 52.7291 115.29C51.8091 115.29 51.1991 114.72 51.1991 113.61V110.52H50.2991V113.73C50.2991 115.3 51.2891 116.08 52.5491 116.08C53.2791 116.08 53.9491 115.76 54.2991 115.19V116H55.2091V110.52ZM57.6556 111.54V108.6H56.7456V116H57.6556V114.99C57.9956 115.59 58.7056 116.09 59.7056 116.09C61.1756 116.09 62.3056 114.94 62.3056 113.24C62.3056 111.53 61.1856 110.43 59.7056 110.43C58.7356 110.43 58.0056 110.93 57.6556 111.54ZM61.3756 113.24C61.3756 114.53 60.5256 115.29 59.5156 115.29C58.5256 115.29 57.6556 114.54 57.6556 113.25C57.6556 111.98 58.5256 111.22 59.5156 111.22C60.5256 111.22 61.3756 111.95 61.3756 113.24ZM64.3934 115.44C64.3934 115.09 64.1234 114.82 63.7934 114.82C63.4434 114.82 63.1734 115.09 63.1734 115.44C63.1734 115.79 63.4434 116.06 63.7934 116.06C64.1234 116.06 64.3934 115.79 64.3934 115.44ZM65.263 113.25C65.263 114.99 66.373 116.09 67.933 116.09C69.293 116.09 70.183 115.33 70.463 114.24H69.483C69.283 114.93 68.743 115.32 67.933 115.32C66.933 115.32 66.193 114.61 66.193 113.25C66.193 111.91 66.933 111.2 67.933 111.2C68.743 111.2 69.293 111.62 69.483 112.28H70.463C70.183 111.13 69.293 110.43 67.933 110.43C66.373 110.43 65.263 111.53 65.263 113.25ZM76.8772 113.25C76.8772 111.52 75.6672 110.43 74.1072 110.43C72.5572 110.43 71.3372 111.52 71.3372 113.25C71.3372 114.99 72.5172 116.09 74.0672 116.09C75.6272 116.09 76.8772 114.99 76.8772 113.25ZM72.2672 113.25C72.2672 111.87 73.1372 111.22 74.0972 111.22C75.0372 111.22 75.9472 111.87 75.9472 113.25C75.9472 114.64 75.0172 115.29 74.0672 115.29C73.1172 115.29 72.2672 114.64 72.2672 113.25ZM85.984 116H86.884V112.77C86.884 111.2 85.914 110.42 84.664 110.42C83.824 110.42 83.044 110.85 82.724 111.64C82.364 110.82 81.614 110.42 80.714 110.42C79.9937 110.42 79.3437 110.73 78.9837 111.31V110.52H78.0737V116H78.9837V112.98C78.9837 111.8 79.6137 111.21 80.534 111.21C81.434 111.21 82.034 111.78 82.034 112.9V116H82.934V112.98C82.934 111.8 83.564 111.21 84.484 111.21C85.384 111.21 85.984 111.78 85.984 112.9V116ZM88.136 117.7H89.036L91.776 106.58H90.866L88.136 117.7ZM94.042 113.02C94.042 111.75 94.702 111.36 95.572 111.36H95.812V110.42C94.942 110.42 94.352 110.8 94.042 111.41V110.52H93.132V116H94.042V113.02ZM99.193 111.2C100.133 111.2 100.933 111.79 100.923 112.86H97.463C97.563 111.79 98.303 111.2 99.193 111.2ZM101.753 114.31H100.773C100.573 114.9 100.053 115.32 99.233 115.32C98.303 115.32 97.523 114.71 97.453 113.6H101.833C101.853 113.41 101.863 113.25 101.863 113.05C101.863 111.55 100.823 110.43 99.233 110.43C97.633 110.43 96.523 111.52 96.523 113.25C96.523 114.99 97.673 116.09 99.233 116.09C100.593 116.09 101.473 115.31 101.753 114.31ZM103.974 111.53V110.52H103.064V118.6H103.974V114.99C104.314 115.55 105.024 116.09 106.024 116.09C107.494 116.09 108.624 114.94 108.624 113.24C108.624 111.53 107.494 110.43 106.024 110.43C105.024 110.43 104.304 110.95 103.974 111.53ZM107.694 113.24C107.694 114.53 106.844 115.29 105.834 115.29C104.844 115.29 103.974 114.54 103.974 113.25C103.974 111.98 104.844 111.22 105.834 111.22C106.844 111.22 107.694 111.95 107.694 113.24ZM115.022 113.25C115.022 111.52 113.812 110.43 112.252 110.43C110.702 110.43 109.482 111.52 109.482 113.25C109.482 114.99 110.662 116.09 112.212 116.09C113.772 116.09 115.022 114.99 115.022 113.25ZM110.412 113.25C110.412 111.87 111.282 111.22 112.242 111.22C113.182 111.22 114.092 111.87 114.092 113.25C114.092 114.64 113.162 115.29 112.212 115.29C111.262 115.29 110.412 114.64 110.412 113.25ZM120.158 114.51C120.118 112.55 116.938 113.26 116.938 111.96C116.938 111.52 117.338 111.2 118.008 111.2C118.738 111.2 119.158 111.6 119.198 112.15H120.108C120.048 111.08 119.248 110.43 118.038 110.43C116.818 110.43 116.028 111.12 116.028 111.96C116.028 114 119.268 113.29 119.268 114.51C119.268 114.96 118.868 115.32 118.148 115.32C117.378 115.32 116.908 114.92 116.858 114.39H115.918C115.978 115.39 116.878 116.09 118.158 116.09C119.368 116.09 120.158 115.41 120.158 114.51ZM121.203 117.7H122.103L124.843 106.58H123.933L121.203 117.7ZM125.859 113.24C125.859 114.94 126.989 116.09 128.449 116.09C129.459 116.09 130.169 115.57 130.499 114.98V116H131.419V110.52H130.499V111.52C130.179 110.95 129.479 110.43 128.459 110.43C126.989 110.43 125.859 111.53 125.859 113.24ZM130.499 113.25C130.499 114.54 129.639 115.29 128.639 115.29C127.639 115.29 126.789 114.53 126.789 113.24C126.789 111.95 127.639 111.22 128.639 111.22C129.639 111.22 130.499 111.98 130.499 113.25ZM140.867 116H141.767V112.77C141.767 111.2 140.797 110.42 139.547 110.42C138.707 110.42 137.927 110.85 137.607 111.64C137.247 110.82 136.497 110.42 135.597 110.42C134.877 110.42 134.227 110.73 133.867 111.31V110.52H132.957V116H133.867V112.98C133.867 111.8 134.497 111.21 135.417 111.21C136.317 111.21 136.917 111.78 136.917 112.9V116H137.817V112.98C137.817 111.8 138.447 111.21 139.367 111.21C140.267 111.21 140.867 111.78 140.867 112.9V116ZM144.169 111.53V110.52H143.259V118.6H144.169V114.99C144.509 115.55 145.219 116.09 146.219 116.09C147.689 116.09 148.819 114.94 148.819 113.24C148.819 111.53 147.689 110.43 146.219 110.43C145.219 110.43 144.499 110.95 144.169 111.53ZM147.889 113.24C147.889 114.53 147.039 115.29 146.029 115.29C145.039 115.29 144.169 114.54 144.169 113.25C144.169 111.98 145.039 111.22 146.029 111.22C147.039 111.22 147.889 111.95 147.889 113.24ZM150.017 116H150.927V108.6H150.017V116ZM152.478 116H153.388V110.52H152.478V116ZM152.948 109.63C153.278 109.63 153.548 109.36 153.548 109.01C153.548 108.66 153.278 108.39 152.948 108.39C152.598 108.39 152.328 108.66 152.328 109.01C152.328 109.36 152.598 109.63 152.948 109.63ZM154.599 113.25C154.599 114.99 155.709 116.09 157.269 116.09C158.629 116.09 159.519 115.33 159.799 114.24H158.819C158.619 114.93 158.079 115.32 157.269 115.32C156.269 115.32 155.529 114.61 155.529 113.25C155.529 111.91 156.269 111.2 157.269 111.2C158.079 111.2 158.629 111.62 158.819 112.28H159.799C159.519 111.13 158.629 110.43 157.269 110.43C155.709 110.43 154.599 111.53 154.599 113.25ZM160.673 113.24C160.673 114.94 161.803 116.09 163.263 116.09C164.273 116.09 164.983 115.57 165.313 114.98V116H166.233V110.52H165.313V111.52C164.993 110.95 164.293 110.43 163.273 110.43C161.803 110.43 160.673 111.53 160.673 113.24ZM165.313 113.25C165.313 114.54 164.453 115.29 163.453 115.29C162.453 115.29 161.603 114.53 161.603 113.24C161.603 111.95 162.453 111.22 163.453 111.22C164.453 111.22 165.313 111.98 165.313 113.25ZM167.971 114.5C167.971 115.6 168.521 116 169.491 116H170.311V115.23H169.641C169.081 115.23 168.881 115.04 168.881 114.5V111.27H170.311V110.52H168.881V109.14H167.971V110.52H167.261V111.27H167.971V114.5ZM171.414 116H172.324V110.52H171.414V116ZM171.884 109.63C172.214 109.63 172.484 109.36 172.484 109.01C172.484 108.66 172.214 108.39 171.884 108.39C171.534 108.39 171.264 108.66 171.264 109.01C171.264 109.36 171.534 109.63 171.884 109.63ZM179.074 113.25C179.074 111.52 177.864 110.43 176.304 110.43C174.754 110.43 173.534 111.52 173.534 113.25C173.534 114.99 174.714 116.09 176.264 116.09C177.824 116.09 179.074 114.99 179.074 113.25ZM174.464 113.25C174.464 111.87 175.334 111.22 176.294 111.22C177.234 111.22 178.144 111.87 178.144 113.25C178.144 114.64 177.214 115.29 176.264 115.29C175.314 115.29 174.464 114.64 174.464 113.25ZM184.281 116H185.181V112.77C185.181 111.2 184.211 110.42 182.941 110.42C182.201 110.42 181.541 110.73 181.181 111.3V110.52H180.271V116H181.181V112.97C181.181 111.79 181.821 111.21 182.751 111.21C183.671 111.21 184.281 111.78 184.281 112.9V116ZM186.427 117.7H187.327L190.067 106.58H189.157L186.427 117.7ZM191.083 113.24C191.083 114.94 192.213 116.09 193.673 116.09C194.683 116.09 195.393 115.57 195.723 114.98V116H196.643V110.52H195.723V111.52C195.403 110.95 194.703 110.43 193.683 110.43C192.213 110.43 191.083 111.53 191.083 113.24ZM195.723 113.25C195.723 114.54 194.863 115.29 193.863 115.29C192.863 115.29 192.013 114.53 192.013 113.24C192.013 111.95 192.863 111.22 193.863 111.22C194.863 111.22 195.723 111.98 195.723 113.25ZM206.091 116H206.991V112.77C206.991 111.2 206.021 110.42 204.771 110.42C203.931 110.42 203.151 110.85 202.831 111.64C202.471 110.82 201.721 110.42 200.821 110.42C200.101 110.42 199.451 110.73 199.091 111.31V110.52H198.181V116H199.091V112.98C199.091 111.8 199.721 111.21 200.641 111.21C201.541 111.21 202.141 111.78 202.141 112.9V116H203.041V112.98C203.041 111.8 203.671 111.21 204.591 111.21C205.491 111.21 206.091 111.78 206.091 112.9V116ZM209.394 111.53V110.52H208.484V118.6H209.394V114.99C209.734 115.55 210.444 116.09 211.444 116.09C212.914 116.09 214.044 114.94 214.044 113.24C214.044 111.53 212.914 110.43 211.444 110.43C210.444 110.43 209.724 110.95 209.394 111.53ZM213.114 113.24C213.114 114.53 212.264 115.29 211.254 115.29C210.264 115.29 209.394 114.54 209.394 113.25C209.394 111.98 210.264 111.22 211.254 111.22C212.264 111.22 213.114 111.95 213.114 113.24ZM215.242 116H216.152V108.6H215.242V116ZM217.703 116H218.613V110.52H217.703V116ZM218.173 109.63C218.503 109.63 218.773 109.36 218.773 109.01C218.773 108.66 218.503 108.39 218.173 108.39C217.823 108.39 217.553 108.66 217.553 109.01C217.553 109.36 217.823 109.63 218.173 109.63ZM219.824 113.25C219.824 114.99 220.934 116.09 222.494 116.09C223.854 116.09 224.744 115.33 225.024 114.24H224.044C223.844 114.93 223.304 115.32 222.494 115.32C221.494 115.32 220.754 114.61 220.754 113.25C220.754 111.91 221.494 111.2 222.494 111.2C223.304 111.2 223.854 111.62 224.044 112.28H225.024C224.744 111.13 223.854 110.43 222.494 110.43C220.934 110.43 219.824 111.53 219.824 113.25ZM225.898 113.24C225.898 114.94 227.028 116.09 228.488 116.09C229.498 116.09 230.208 115.57 230.538 114.98V116H231.458V110.52H230.538V111.52C230.218 110.95 229.518 110.43 228.498 110.43C227.028 110.43 225.898 111.53 225.898 113.24ZM230.538 113.25C230.538 114.54 229.678 115.29 228.678 115.29C227.678 115.29 226.828 114.53 226.828 113.24C226.828 111.95 227.678 111.22 228.678 111.22C229.678 111.22 230.538 111.98 230.538 113.25ZM232.656 113.25C232.656 114.99 233.766 116.09 235.326 116.09C236.686 116.09 237.576 115.33 237.856 114.24H236.876C236.676 114.93 236.136 115.32 235.326 115.32C234.326 115.32 233.586 114.61 233.586 113.25C233.586 111.91 234.326 111.2 235.326 111.2C236.136 111.2 236.686 111.62 236.876 112.28H237.856C237.576 111.13 236.686 110.43 235.326 110.43C233.766 110.43 232.656 111.53 232.656 113.25ZM239.27 114.5C239.27 115.6 239.82 116 240.79 116H241.61V115.23H240.94C240.38 115.23 240.18 115.04 240.18 114.5V111.27H241.61V110.52H240.18V109.14H239.27V110.52H238.56V111.27H239.27V114.5ZM242.712 116H243.622V110.52H242.712V116ZM243.182 109.63C243.512 109.63 243.782 109.36 243.782 109.01C243.782 108.66 243.512 108.39 243.182 108.39C242.832 108.39 242.562 108.66 242.562 109.01C242.562 109.36 242.832 109.63 243.182 109.63ZM250.373 113.25C250.373 111.52 249.163 110.43 247.603 110.43C246.053 110.43 244.833 111.52 244.833 113.25C244.833 114.99 246.013 116.09 247.563 116.09C249.123 116.09 250.373 114.99 250.373 113.25ZM245.763 113.25C245.763 111.87 246.633 111.22 247.593 111.22C248.533 111.22 249.443 111.87 249.443 113.25C249.443 114.64 248.513 115.29 247.563 115.29C246.613 115.29 245.763 114.64 245.763 113.25ZM255.58 116H256.48V112.77C256.48 111.2 255.51 110.42 254.24 110.42C253.5 110.42 252.84 110.73 252.48 111.3V110.52H251.57V116H252.48V112.97C252.48 111.79 253.12 111.21 254.05 111.21C254.97 111.21 255.58 111.78 255.58 112.9V116Z" fill="#A3A8B8"/>
<path d="M30.3213 117H257.2V117.5H30.3213V117Z" fill="#A3A8B8"/>
<path d="M637 145H24C21.7909 145 20 146.791 20 149V205C20 207.209 21.7909 209 24 209H637C639.209 209 641 207.209 641 205V149C641 146.791 639.209 145 637 145Z" fill="#373D57"/>
<path d="M231 157H36C33.7909 157 32 158.791 32 161V169C32 171.209 33.7909 173 36 173H231C233.209 173 235 171.209 235 169V161C235 158.791 233.209 157 231 157Z" fill="#444B66"/>
<path d="M318 181H36C33.7909 181 32 182.791 32 185V193C32 195.209 33.7909 197 36 197H318C320.209 197 322 195.209 322 193V185C322 182.791 320.209 181 318 181Z" fill="#444B66"/>
<path d="M637 225H24C21.7909 225 20 226.791 20 229V285C20 287.209 21.7909 289 24 289H637C639.209 289 641 287.209 641 285V229C641 226.791 639.209 225 637 225Z" fill="#373D57"/>
<path d="M231 237H36C33.7909 237 32 238.791 32 241V249C32 251.209 33.7909 253 36 253H231C233.209 253 235 251.209 235 249V241C235 238.791 233.209 237 231 237Z" fill="#444B66"/>
<path d="M318 261H36C33.7909 261 32 262.791 32 265V273C32 275.209 33.7909 277 36 277H318C320.209 277 322 275.209 322 273V265C322 262.791 320.209 261 318 261Z" fill="#444B66"/>
<defs>
<filter id="filter0_i_1_49" x="20" y="21" width="46.0952" height="24" filterUnits="userSpaceOnUse" color-interpolation-filters="sRGB">
<feFlood flood-opacity="0" result="BackgroundImageFix"/>
<feBlend mode="normal" in="SourceGraphic" in2="BackgroundImageFix" result="shape"/>
<feColorMatrix in="SourceAlpha" type="matrix" values="0 0 0 0 0 0 0 0 0 0 0 0 0 0 0 0 0 0 127 0" result="hardAlpha"/>
<feOffset dy="2"/>
<feGaussianBlur stdDeviation="1"/>
<feComposite in2="hardAlpha" operator="arithmetic" k2="-1" k3="1"/>
<feColorMatrix type="matrix" values="0 0 0 0 0.119145 0 0 0 0 0.0569014 0 0 0 0 0.295247 0 0 0 0.29 0"/>
<feBlend mode="normal" in2="shape" result="effect1_innerShadow_1_49"/>
</filter>
<filter id="filter1_d_1_49" x="26.6865" y="7.444" width="56.9825" height="57.1111" filterUnits="userSpaceOnUse" color-interpolation-filters="sRGB">
<feFlood flood-opacity="0" result="BackgroundImageFix"/>
<feColorMatrix in="SourceAlpha" type="matrix" values="0 0 0 0 0 0 0 0 0 0 0 0 0 0 0 0 0 0 127 0" result="hardAlpha"/>
<feOffset dy="4"/>
<feGaussianBlur stdDeviation="10"/>
<feColorMatrix type="matrix" values="0 0 0 0 0.177453 0 0 0 0 0.0798565 0 0 0 0 0.453581 0 0 0 0.38 0"/>
<feBlend mode="normal" in2="BackgroundImageFix" result="effect1_dropShadow_1_49"/>
<feBlend mode="normal" in="SourceGraphic" in2="effect1_dropShadow_1_49" result="shape"/>
</filter>
</defs>
</svg>
